<?xml version="1.0" encoding="UTF-8"?>
<svg id="Layer_1" data-name="Layer 1" xmlns="http://www.w3.org/2000/svg" viewBox="0 0 78.93 78.87">
  <defs>
    <style>
      .cls-1 {
        fill: #f20e0e;
      }
    </style>
  </defs>
  <path class="cls-1" d="m24.34,12.5c1.56-1.52,2.94-2.85,4.48-4.35,1.43,1.48,2.91,3.05,4.43,4.57,3.68,3.7,7.4,7.37,11.07,11.09,2.14,2.17,2.66,5.18,1.43,7.79-1.23,2.6-3.9,4.12-6.81,3.86-1.6-.14-2.99-.79-4.12-1.92-5.18-5.16-10.35-10.35-15.52-15.53-.07-.07-.11-.16-.16-.23,1.38-1.35,2.75-2.69,4.15-4.05,5.14,5.16,10.38,10.43,15.68,15.76.5-.55.83-.92,1.16-1.28-5.22-5.21-10.47-10.44-15.78-15.73Z"/>
  <path class="cls-1" d="m59.85,17.7c-1.37,1.36-2.72,2.7-4.09,4.05-5.16-5.19-10.4-10.46-15.67-15.76-.51.57-.85.94-1.2,1.32,5.2,5.16,10.47,10.4,15.72,15.62-1.56,1.55-2.94,2.91-4.42,4.39-2.01-2.05-4.07-4.16-6.15-6.25-3.17-3.19-6.39-6.34-9.53-9.56-2.01-2.06-2.46-4.97-1.29-7.54C34.37,1.47,36.89-.1,39.67,0c1.67.06,3.18.64,4.37,1.82,5.26,5.23,10.5,10.48,15.74,15.73.04.04.06.12.07.14Z"/>
  <path class="cls-1" d="m61.32,59.92c-1.49-1.51-2.83-2.88-4.23-4.29,5.2-5.18,10.46-10.43,15.81-15.76-.46-.47-.81-.82-1.23-1.25-5.31,5.35-10.52,10.61-15.75,15.89-1.46-1.51-2.8-2.9-4.26-4.4,1.55-1.52,3.2-3.12,4.82-4.74,3.65-3.64,7.26-7.31,10.94-10.91,2.66-2.61,6.83-2.54,9.48.06,2.73,2.68,2.71,6.97-.09,9.79-4.41,4.43-8.84,8.84-13.26,13.26-.75.75-1.46,1.54-2.24,2.37Z"/>
  <path class="cls-1" d="m17.75,19.09c1.44,1.41,2.81,2.76,4.23,4.15-5.23,5.22-10.48,10.46-15.86,15.83.48.32.91.59,1.45.95,5.08-5.11,10.32-10.39,15.5-15.61,1.47,1.47,2.83,2.82,4.49,4.47-.25.13-.65.24-.91.5-4.97,4.94-9.9,9.93-14.89,14.86-3.54,3.5-9.19,2.46-11.13-2.07-1.12-2.61-.76-5.17,1.2-7.19,5.2-5.34,10.52-10.57,15.8-15.84.04-.04.12-.06.12-.06Z"/>
  <path class="cls-1" d="m19.17,61.24c1.38-1.41,2.73-2.8,4.15-4.27,5.22,5.23,10.45,10.47,15.74,15.79.42-.41.78-.75,1.23-1.18-5.33-5.3-10.6-10.54-15.82-15.74,1.45-1.46,2.8-2.82,4.32-4.35.41.46.83.99,1.31,1.47,4.68,4.7,9.36,9.38,14.05,14.07,2.84,2.84,2.96,7.07.29,9.78-2.74,2.78-6.97,2.76-9.86-.11-5.09-5.06-10.15-10.15-15.22-15.23-.1-.1-.18-.2-.2-.22Z"/>
  <path class="cls-1" d="m59.95,60.98c-1.45,1.48-2.8,2.84-4.23,4.29-5.22-5.27-10.46-10.56-15.75-15.9-.51.5-.86.86-1.24,1.23,5.32,5.3,10.57,10.53,15.83,15.77-1.49,1.45-2.88,2.8-4.4,4.29-1.37-1.41-2.84-2.94-4.33-4.44-3.78-3.8-7.62-7.53-11.34-11.39-3.43-3.55-2.04-9.38,2.61-11.05,2.76-.99,5.21-.31,7.27,1.74,4.14,4.12,8.26,8.25,12.4,12.37,1.04,1.04,2.11,2.06,3.17,3.1Z"/>
  <path class="cls-1" d="m18.1,60.03c-1.63-1.61-3-2.96-4.43-4.38,5.24-5.23,10.5-10.49,15.79-15.77-.45-.43-.81-.77-1.22-1.16-5.23,5.24-10.46,10.49-15.67,15.7-1.42-1.47-2.77-2.86-4.25-4.39,1.42-1.38,2.98-2.87,4.5-4.39,3.7-3.68,7.36-7.41,11.09-11.06,3.73-3.66,9.78-2.21,11.32,2.71.85,2.72.12,5.08-1.87,7.07-2.96,2.97-5.92,5.93-8.89,8.89-1.87,1.87-3.75,3.73-5.6,5.62-.33.34-.54.79-.78,1.14Z"/>
  <path class="cls-1" d="m61.07,19.08c1.38,1.4,2.72,2.76,4.09,4.15-5.15,5.12-10.42,10.36-15.8,15.7.58.5.95.83,1.46,1.26,5.21-5.25,10.45-10.52,15.64-15.75,1.46,1.44,2.82,2.79,4.34,4.3-.87.82-1.82,1.66-2.71,2.55-4.28,4.26-8.55,8.54-12.83,12.81-2.88,2.86-7.07,2.98-9.79.28-2.77-2.74-2.74-6.97.13-9.86,5.01-5.04,10.05-10.06,15.08-15.08.14-.14.3-.27.4-.35Z"/>
</svg>